<svg xmlns="http://www.w3.org/2000/svg" viewBox="0 0 346.09 266.38"><defs><style>.cls-1{fill:#0071bc;}.cls-2{fill:#29abe2;opacity:0.8;}.cls-3{fill:red;}.cls-4{fill:#c1272d;}.cls-5{fill:#ed1c24;}.cls-6,.cls-7{fill:#f7931e;}.cls-7{opacity:0.7;}</style></defs><g id="Capa_2" data-name="Capa 2"><g id="Capa_1-2" data-name="Capa 1"><ellipse class="cls-1" cx="152.54" cy="53.96" rx="105.5" ry="52.5" transform="translate(-5.92 21.21) rotate(-7.8)"/><ellipse class="cls-2" cx="146.33" cy="25.2" rx="53.78" ry="17.26" transform="translate(-2.03 31.16) rotate(-12.07)"/><ellipse class="cls-3" cx="173.04" cy="90.46" rx="176" ry="46" transform="translate(-13.99 34.38) rotate(-10.91)"/><ellipse class="cls-4" cx="172.56" cy="98.76" rx="151.6" ry="35.02" transform="translate(-15.57 34.44) rotate(-10.91)"/><path class="cls-5" d="M208.36,83.77c1.2,6.24-14.53,14.51-35.14,18.49-19.31,3.72-36.05,2.34-39.07-3a3.9,3.9,0,0,1-.42-1.12c-1.2-6.24,14.53-14.52,35.14-18.49S207.15,77.54,208.36,83.77Z"/><ellipse class="cls-6" cx="172.04" cy="93.96" rx="29" ry="10.5" transform="translate(-15.85 38.05) rotate(-12.07)"/><polygon class="cls-7" points="301.97 225.49 162.85 266.38 149.48 103.55 196.47 88.42 301.97 225.49"/><ellipse class="cls-6" cx="16.54" cy="112.96" rx="8.5" ry="7.5"/><ellipse class="cls-6" cx="134.54" cy="61.96" rx="8.5" ry="7.5"/><ellipse class="cls-6" cx="101.54" cy="69.96" rx="8.5" ry="7.5"/><ellipse class="cls-6" cx="68.54" cy="82.96" rx="8.5" ry="7.5"/><ellipse class="cls-6" cx="39.54" cy="95.96" rx="8.5" ry="7.5"/><ellipse class="cls-6" cx="265.54" cy="44.96" rx="8.5" ry="7.5"/><ellipse class="cls-6" cx="234.54" cy="44.96" rx="8.5" ry="7.5"/><ellipse class="cls-6" cx="200.54" cy="48.96" rx="8.5" ry="7.5"/><ellipse class="cls-6" cx="168.54" cy="53.96" rx="8.5" ry="7.5"/><ellipse class="cls-6" cx="303.54" cy="46.96" rx="8.5" ry="7.5"/><ellipse class="cls-6" cx="23.04" cy="136.96" rx="3.5" ry="8" transform="translate(-107.09 88.44) rotate(-60)"/></g></g></svg>